# xmcd
#
# Track frame offsets: 
#        150
#        24255
#        51198
#        59034
#        77226
#        102935
#        120170
#        155246
#        199738
#        224850
#        244227
#        269964
#        289896
#        300014
#        316127
#
# Disc length: 4521 seconds
#
# Revision: 0
# Processed by: cddbd v1.5.2PL0 Copyright (c) Steve Scherf et al.
# Submitted via: ExactAudioCopyFreeDBPlugin 1.0
#
DISCID=e011a70f
DTITLE=Virgin Steele - The Marriage Of Heaven And Hell - Part Two
DYEAR=1995
DGENRE=Power Metal
TTITLE0=A Symphony Of Steele
TTITLE1=Crown Of Glory (Unscarred)
TTITLE2=From Chaos To Creation
TTITLE3=Twilight Of The Gods
TTITLE4=Rising Unchained
TTITLE5=Transfiguration
TTITLE6=Prometheus The Fallen One
TTITLE7=Emalaith
TTITLE8=Strawgirl
TTITLE9=Devil-Angel
TTITLE10=Unholy Water
TTITLE11=Victory Is Mine
TTITLE12=The Marriage Of Heaven And Hell Revisited
TTITLE13=Life Among The Ruins (live bonus track)
TTITLE14=I Wake Up Screaming (live bonus track)
EXTD=
EXTT0=
EXTT1=
EXTT2=
EXTT3=
EXTT4=
EXTT5=
EXTT6=
EXTT7=
EXTT8=
EXTT9=
EXTT10=
EXTT11=
EXTT12=
EXTT13=
EXTT14=
PLAYORDER=
